<?xml version="1.0" standalone="no"?>
<!DOCTYPE svg PUBLIC "-//W3C//DTD SVG 20010904//EN"
 "http://www.w3.org/TR/2001/REC-SVG-20010904/DTD/svg10.dtd">
<svg version="1.0" xmlns="http://www.w3.org/2000/svg"
 width="391.000000pt" height="391.000000pt" viewBox="0 0 391.000000 391.000000"
 preserveAspectRatio="xMidYMid meet">
<metadata>
Created by potrace 1.11, written by Peter Selinger 2001-2013
</metadata>
<g transform="translate(0.000000,391.000000) scale(0.100000,-0.100000)"
fill="#000000" stroke="none">
<path d="M3170 3232 l-505 -3 -61 -122 c-74 -148 -86 -154 -128 -67 -16 33
-32 60 -35 60 -3 0 -13 15 -20 33 -8 17 -24 47 -35 64 l-21 33 -297 0 -296 0
-14 -30 c-7 -16 -16 -30 -20 -30 -5 0 -8 -4 -8 -10 0 -5 -15 -33 -33 -62 -17
-29 -39 -66 -48 -83 -30 -56 -49 -44 -104 68 -27 56 -53 104 -57 105 -5 2 -8
12 -8 23 0 19 -15 19 -601 19 -569 0 -601 -1 -594 -17 4 -10 16 -40 27 -68 24
-62 47 -115 59 -137 5 -10 9 -22 9 -28 0 -10 32 -86 51 -122 5 -10 9 -22 9
-28 0 -5 11 -33 24 -62 37 -82 66 -159 66 -174 0 -8 5 -14 10 -14 6 0 10 -11
10 -25 0 -14 5 -25 10 -25 6 0 10 -6 10 -14 0 -13 81 -221 101 -258 5 -10 9
-25 9 -33 0 -8 4 -15 8 -15 4 0 14 -21 21 -47 8 -27 17 -52 21 -58 4 -5 17
-37 30 -70 13 -33 29 -76 37 -95 8 -19 19 -45 24 -57 5 -13 14 -34 19 -48 6
-14 15 -36 20 -50 6 -14 14 -35 19 -47 8 -21 26 -64 53 -128 6 -14 14 -33 19
-42 5 -10 9 -22 9 -28 0 -6 9 -32 21 -58 12 -26 24 -56 29 -67 4 -11 12 -32
19 -48 l11 -27 456 2 457 3 29 80 c15 43 33 84 38 89 6 6 10 17 10 26 0 8 9
26 18 38 l18 24 15 -24 c9 -12 21 -39 29 -58 7 -19 20 -51 28 -70 24 -58 30
-74 36 -92 5 -16 29 -18 252 -20 135 -2 249 -1 253 2 4 3 13 21 20 40 7 19 22
54 32 77 11 24 31 73 46 110 14 38 29 73 33 78 4 6 11 24 14 40 l7 30 -302 0
-302 0 -59 115 c-32 63 -58 120 -58 127 0 7 -4 13 -10 13 -5 0 -10 9 -10 20 0
11 -4 20 -9 20 -5 0 -12 10 -14 23 l-4 22 -2 -22 c0 -13 -5 -23 -11 -23 -5 0
-10 -6 -10 -13 0 -8 -20 -52 -44 -99 -24 -47 -47 -100 -51 -117 -4 -17 -10
-31 -15 -31 -4 0 -10 -9 -13 -20 -5 -19 -14 -20 -307 -20 -188 0 -309 4 -321
10 -10 6 -19 19 -19 30 0 10 -4 21 -9 24 -5 3 -12 18 -15 32 -4 14 -16 47 -27
73 -12 25 -25 56 -30 69 -23 58 -32 78 -40 94 -5 10 -9 27 -9 38 0 11 -4 20
-10 20 -5 0 -10 10 -10 23 0 13 -4 27 -8 32 -7 8 -39 84 -113 273 -5 12 -14
34 -20 50 -7 15 -15 36 -19 47 -4 11 -12 31 -18 45 -5 14 -20 50 -32 80 -12
30 -28 69 -35 85 -7 17 -18 43 -24 59 -7 16 -8 33 -3 38 4 4 120 7 257 6 l249
-3 29 -70 c34 -82 46 -112 58 -142 5 -13 14 -34 19 -48 6 -14 15 -36 20 -50 6
-14 15 -37 21 -52 6 -16 17 -41 25 -56 8 -16 14 -33 14 -38 0 -9 33 -87 51
-121 5 -10 9 -25 9 -33 0 -8 7 -15 15 -15 8 0 15 7 15 15 0 8 4 23 9 33 5 9
13 28 19 42 64 161 82 208 82 218 0 7 5 12 10 12 6 0 10 11 10 25 0 14 5 25
10 25 6 0 10 9 10 20 0 11 4 28 9 38 9 17 23 52 40 95 4 12 17 40 28 62 l19
40 193 0 c162 0 195 -2 202 -15 5 -8 18 -37 30 -65 11 -27 25 -58 30 -67 5
-10 9 -27 9 -38 0 -11 5 -20 10 -20 6 0 10 -11 10 -24 0 -14 5 -28 10 -31 6
-3 10 -15 10 -26 0 -10 5 -19 10 -19 6 0 10 -9 10 -19 0 -11 11 -41 24 -68 13
-26 34 -75 46 -108 12 -33 26 -68 31 -77 5 -10 9 -24 9 -32 0 -8 7 -16 15 -20
11 -4 15 1 15 17 0 13 4 27 8 33 5 5 19 36 31 69 13 33 29 72 37 87 8 14 14
33 14 42 0 9 5 16 10 16 6 0 10 7 10 15 0 8 4 23 9 33 5 9 35 82 67 162 31 80
62 149 68 153 12 9 484 2 494 -7 4 -5 -65 -190 -113 -301 -22 -50 -57 -138
-65 -165 -4 -14 -11 -33 -15 -42 -7 -17 6 -18 194 -18 l201 0 22 48 c11 26 24
56 28 67 8 23 22 55 43 105 8 19 31 77 51 128 20 52 43 110 52 130 19 45 17
39 94 232 34 85 68 168 76 184 20 41 7 46 -96 43 -47 -1 -312 -3 -590 -5z"/>
<path d="M510 1081 c0 -17 5 -33 10 -36 6 -3 10 -48 10 -99 0 -50 4 -96 9
-101 5 -6 12 -50 15 -100 6 -91 12 -153 22 -213 5 -30 7 -32 48 -32 39 0 44 3
50 28 16 63 37 164 54 255 10 54 23 72 46 64 11 -4 16 -19 16 -45 0 -21 4 -42
9 -47 5 -6 12 -29 15 -52 3 -24 9 -62 12 -85 3 -24 10 -47 15 -52 5 -6 9 -23
9 -39 0 -27 1 -28 47 -25 l48 3 3 55 c2 30 7 68 12 84 6 16 10 61 10 100 0 40
4 76 9 81 5 6 12 48 15 95 3 47 8 109 11 138 l7 52 -40 0 -41 0 -5 -52 c-3
-29 -8 -91 -11 -138 -6 -96 -25 -185 -40 -185 -10 0 -22 51 -32 138 -3 26 -9
47 -14 47 -5 0 -9 14 -9 31 0 18 -4 48 -10 68 -5 20 -12 48 -15 64 -4 22 -11
27 -34 27 -30 0 -41 -18 -41 -72 0 -15 -4 -30 -10 -33 -5 -3 -10 -26 -10 -50
0 -24 -4 -47 -10 -50 -5 -3 -10 -26 -10 -50 0 -24 -4 -47 -10 -50 -5 -3 -10
-19 -10 -35 0 -27 -15 -48 -26 -37 -4 3 -16 92 -30 207 -1 14 -3 58 -3 98 l-1
72 -45 0 c-43 0 -45 -1 -45 -29z"/>
<path d="M1882 1075 c-1 -33 0 -35 33 -35 64 0 65 -3 65 -286 l0 -254 45 0 45
0 2 268 3 267 48 3 c46 3 47 4 47 38 l0 34 -143 0 -144 0 -1 -35z"/>
<path d="M1110 765 l0 -266 143 3 142 3 0 35 0 35 -97 3 -98 3 0 64 c0 60 2
65 24 71 13 3 47 4 75 2 l51 -4 0 37 0 38 -72 3 -73 3 -3 77 -3 77 98 3 98 3
0 35 0 35 -142 3 -143 3 0 -266z"/>
<path d="M1495 1017 c-3 -7 -4 -125 -3 -262 l3 -250 127 0 c101 0 130 3 143
15 23 24 25 199 2 211 -15 9 -15 12 2 47 16 31 18 52 14 124 -5 86 -6 88 -38
108 -27 17 -50 20 -139 20 -77 0 -108 -4 -111 -13z m196 -77 c16 -9 19 -22 19
-75 0 -73 -7 -79 -91 -73 l-44 3 -3 69 c-2 49 1 72 10 77 18 12 86 11 109 -1z
m-10 -232 c21 -5 29 -19 29 -60 0 -63 -5 -68 -76 -68 l-64 0 0 64 c0 59 2 65
23 69 20 5 53 3 88 -5z"/>
<path d="M2282 1017 c-46 -26 -52 -56 -52 -254 0 -250 8 -263 152 -263 44 0
83 6 104 16 l34 16 0 229 0 229 -32 20 c-39 24 -168 28 -206 7z m146 -78 c21
-12 22 -17 22 -170 0 -86 -3 -164 -6 -173 -10 -25 -110 -22 -124 3 -16 31 -13
302 4 327 17 23 71 30 104 13z"/>
<path d="M2695 1019 c-53 -30 -55 -40 -54 -259 0 -262 -5 -253 143 -258 146
-5 140 -16 144 253 l3 212 -24 29 c-24 27 -31 29 -109 32 -49 1 -91 -2 -103
-9z m135 -79 c19 -10 20 -19 18 -183 l-3 -172 -53 -3 c-51 -3 -53 -2 -67 30
-19 44 -16 284 4 314 15 23 70 31 101 14z"/>
<path d="M3050 1028 c0 -2 -1 -120 -1 -263 l-1 -260 124 0 123 0 0 35 0 35
-77 3 -78 3 0 209 c0 114 -3 215 -6 224 -4 11 -19 16 -45 16 -21 0 -39 -1 -39
-2z"/>
<path d="M3400 999 c-31 -31 -31 -32 -28 -127 2 -72 7 -97 18 -102 8 -4 25
-12 37 -18 13 -7 34 -12 47 -12 14 0 28 -4 31 -10 3 -5 16 -10 29 -10 33 0 46
-19 46 -70 0 -58 -12 -70 -71 -70 -45 0 -48 2 -54 30 -6 27 -10 30 -46 30
l-39 0 0 -45 c0 -37 5 -51 26 -70 25 -23 35 -25 119 -25 127 0 134 6 142 126
3 50 3 102 0 115 -7 26 -47 49 -83 49 -13 0 -25 4 -28 9 -3 5 -21 12 -40 15
-47 9 -59 27 -52 78 3 24 5 44 5 45 1 1 17 5 37 9 47 9 84 -8 84 -39 0 -23 5
-24 69 -18 10 1 12 12 7 49 -11 73 -40 92 -143 92 -78 0 -83 -1 -113 -31z"/>
</g>
</svg>
